<svg width="20" height="20" viewBox="0 0 20 20" fill="none" xmlns="http://www.w3.org/2000/svg">
<g opacity="0.6">
<path fill-rule="evenodd" clip-rule="evenodd" d="M3.75 0C1.67893 0 0 1.67893 0 3.75V16.25C0 18.3211 1.67893 20 3.75 20H16.25C18.3211 20 20 18.3211 20 16.25V3.75C20 1.67893 18.3211 0 16.25 0H3.75ZM12.325 10.9V10.8C13.025 10.2 13.525 9.45 13.475 8.45V8C13.475 6.3 12.175 5 10.475 5H5.625V14.8H7.775V11.5H10.3481L11.875 14.8H14.375L12.325 10.9ZM9.825 9.5H7.875V7H9.825C10.575 7 11.125 7.5 11.125 8.25V8.35C11.125 8.7 10.975 9 10.725 9.2C10.525 9.4 10.175 9.5 9.825 9.5Z" fill="#667085"/>
</g>
</svg>
