<svg width="36" height="36" viewBox="0 0 36 36" fill="none" xmlns="http://www.w3.org/2000/svg">
<path d="M32.7598 21.5191L31.7694 20.1121L30.6331 19.8264L30.2204 20.7598L29.5723 20.743L29.2812 17.7694L30.0044 15.8819L30.6418 15.4903L29.9385 13.5596L30.3482 12.3482L30.8604 12.6655L31.9437 14.8548L32.5135 15.2793L34.4749 15.7445L32.8184 12.8457L31.8868 12.9829L31.2186 12.3714L31.1666 10.7426L30.3444 8.67466L29.362 8.06329L28.9548 7.28461L29.4596 6.44684L28.5123 5.838L28.3752 6.85342L27.2 8.32313L26.8318 9.73043L27.018 10.4498L25.9396 11.7823L25.661 12.7392L24.9531 12.8301L24.0857 13.7402L24.2529 14.4599L23.471 15.7368L22.8506 15.0393L22.1902 15.6886L20.5611 16.1277L20.5365 16.1845L20.2982 14.8297L19.6848 14.8999L17.7765 15.9082L17.384 16.7846L16.5782 16.8857L16.1751 17.4455L15.4043 17.556L14.8871 16.9007L13.7383 18.3132L11.498 17.1046L8.47349 16.4557L7.97889 16.7508L8.52184 15.3517L8.51745 15.3365L8.91636 16.3175L9.86347 16.2608L9.53732 14.0354L8.80926 13.9966L7.07797 15.5449L6.94441 16.099L5.56767 16.4943L4.93821 16.276L3.86014 17.1508L4.0621 17.9612L3.12479 20.4618L3.65426 22.2262L2.43228 22.6936L1.6682 22.8112L1.83196 24.3693L2.86915 26.2221L3.13346 27.2804L3.8456 25.7241L4.24411 25.5874L4.92853 25.7403L4.90582 24.2265L5.60194 23.7909L7.39824 24.0981L9.13796 25.979L10.099 25.0017L12.6885 25.4565L13.2861 26.6125L14.0046 26.458L15.0364 28.3425L16.3296 28.5735L17.3794 29.394L18.77 28.5649L20.597 28.8165L20.916 27.5518L21.978 27.6989L22.5705 28.1369L23.8499 27.7767L24.8938 27.7658L25.7377 26.7263L26.8909 26.4762L27.0826 25.8603L27.0945 24.0529L28.1079 23.5185L29.425 24.3615L30.4718 23.9704L30.9304 24.2965L31.5206 23.1671L31.9854 23.8663L32.4696 25.699L33.0006 25.4485L33.2601 24.5805L32.7598 21.5191Z" stroke="#CC2222" stroke-width="3.00375" stroke-linejoin="round"/>
</svg>
