<svg width="66" height="55" viewBox="0 0 66 55" fill="none" xmlns="http://www.w3.org/2000/svg">
<path d="M0 7.2483L14.0811 15.3054L26.6844 8.11934L39.2877 15.3054L51.9189 8.11934L63.0444 14.4655L66 8.05713L51.9189 0L39.3156 7.21719L26.6844 0L14.0811 7.21719L2.95564 0.839932L0 7.2483ZM0 27.0956L14.0811 35.1527L26.6844 27.9355L39.2877 35.1527L51.9189 27.9355L63.0444 34.3128L66 27.9044L51.9189 19.8473L39.3156 27.0645L26.6844 19.8473L14.0811 27.0645L2.95564 20.6872L0 27.0956ZM0 46.9429L14.0811 55L26.6844 47.7828L39.2877 55L51.9189 47.7828L63.0444 54.1601L66 47.7206L51.9189 39.6635L39.3156 46.8807L26.6844 39.6635L14.0811 46.8807L2.95564 40.5345L0 46.9429Z" fill="#FFE2E2"/>
</svg>
