<svg width="20" height="20" viewBox="0 0 20 20" fill="none" xmlns="http://www.w3.org/2000/svg">
<g opacity="0.6">
<path fill-rule="evenodd" clip-rule="evenodd" d="M3.75 0C1.67893 0 0 1.67893 0 3.75V16.25C0 18.3211 1.67893 20 3.75 20H16.25C18.3211 20 20 18.3211 20 16.25V3.75C20 1.67893 18.3211 0 16.25 0H3.75ZM3.125 5.625C3.23333 10.825 5.83331 13.95 10.3916 13.95H10.65V10.975C12.325 11.1417 13.5916 12.3667 14.0999 13.95H16.4667C15.8167 11.5833 14.1083 10.275 13.0416 9.77498C14.1083 9.15832 15.6083 7.65833 15.9666 5.625H13.8165C13.3499 7.275 11.9667 8.77498 10.65 8.91665V5.625H8.49996V11.3917C7.16663 11.0583 5.48333 9.44167 5.40833 5.625H3.125Z" fill="#667085"/>
</g>
</svg>
