<svg width="37" height="36" viewBox="0 0 37 36" fill="none" xmlns="http://www.w3.org/2000/svg">
<path d="M29.25 10.5V6C29.25 5.60218 29.092 5.22064 28.8107 4.93934C28.5294 4.65804 28.1478 4.5 27.75 4.5H8.25C7.45435 4.5 6.69129 4.81607 6.12868 5.37868C5.56607 5.94129 5.25 6.70435 5.25 7.5M5.25 7.5C5.25 8.29565 5.56607 9.05871 6.12868 9.62132C6.69129 10.1839 7.45435 10.5 8.25 10.5H30.75C31.1478 10.5 31.5294 10.658 31.8107 10.9393C32.092 11.2206 32.25 11.6022 32.25 12V18M5.25 7.5V28.5C5.25 29.2956 5.56607 30.0587 6.12868 30.6213C6.69129 31.1839 7.45435 31.5 8.25 31.5H30.75C31.1478 31.5 31.5294 31.342 31.8107 31.0607C32.092 30.7794 32.25 30.3978 32.25 30V24M32.25 18H27.75C26.9544 18 26.1913 18.3161 25.6287 18.8787C25.0661 19.4413 24.75 20.2044 24.75 21C24.75 21.7956 25.0661 22.5587 25.6287 23.1213C26.1913 23.6839 26.9544 24 27.75 24H32.25M32.25 18C32.6478 18 33.0294 18.158 33.3107 18.4393C33.592 18.7206 33.75 19.1022 33.75 19.5V22.5C33.75 22.8978 33.592 23.2794 33.3107 23.5607C33.0294 23.842 32.6478 24 32.25 24" stroke="#CC2222" stroke-width="3" stroke-linecap="round" stroke-linejoin="round"/>
</svg>
